<?xml version="1.0" encoding="UTF-8" standalone="no"?>
<!-- Created with Inkscape (http://www.inkscape.org/) -->

<svg
   xmlns:dc="http://purl.org/dc/elements/1.1/"
   xmlns:cc="http://creativecommons.org/ns#"
   xmlns:rdf="http://www.w3.org/1999/02/22-rdf-syntax-ns#"
   xmlns:svg="http://www.w3.org/2000/svg"
   xmlns="http://www.w3.org/2000/svg"
   xmlns:xlink="http://www.w3.org/1999/xlink"
   xmlns:sodipodi="http://sodipodi.sourceforge.net/DTD/sodipodi-0.dtd"
   xmlns:inkscape="http://www.inkscape.org/namespaces/inkscape"
   width="300mm"
   height="300mm"
   viewBox="0 0 300 300"
   version="1.1"
   id="svg5"
   inkscape:version="0.92.5 (2060ec1f9f, 2020-04-08)"
   sodipodi:docname="MeadowIcon.svg"
   inkscape:export-filename="/home/diego/Projects/Meadow/Graphics/MeadowIcon.png"
   inkscape:export-xdpi="21.674667"
   inkscape:export-ydpi="21.674667">
  <metadata
     id="metadata11">
    <rdf:RDF>
      <cc:Work
         rdf:about="">
        <dc:format>image/svg+xml</dc:format>
        <dc:type
           rdf:resource="http://purl.org/dc/dcmitype/StillImage" />
        <dc:title></dc:title>
      </cc:Work>
    </rdf:RDF>
  </metadata>
  <sodipodi:namedview
     id="namedview7"
     pagecolor="#505050"
     bordercolor="#eeeeee"
     borderopacity="1"
     inkscape:pageshadow="0"
     inkscape:pageopacity="0"
     inkscape:pagecheckerboard="0"
     inkscape:document-units="mm"
     showgrid="false"
     inkscape:zoom="0.60221134"
     inkscape:cx="559.66773"
     inkscape:cy="669.54529"
     inkscape:window-width="1920"
     inkscape:window-height="992"
     inkscape:window-x="0"
     inkscape:window-y="31"
     inkscape:window-maximized="1"
     inkscape:current-layer="layer4" />
  <defs
     id="defs2">
    <linearGradient
       inkscape:collect="always"
       id="linearGradient881">
      <stop
         style="stop-color:#4caf50;stop-opacity:1;"
         offset="0"
         id="stop877" />
      <stop
         style="stop-color:#11d8e7;stop-opacity:1"
         offset="1"
         id="stop879" />
    </linearGradient>
    <linearGradient
       inkscape:collect="always"
       xlink:href="#linearGradient881"
       id="linearGradient883"
       x1="-1042.2394"
       y1="575.5918"
       x2="-661.94928"
       y2="920.75275"
       gradientUnits="userSpaceOnUse"
       gradientTransform="translate(1230.9603,-12.857681)" />
    <linearGradient
       inkscape:collect="always"
       xlink:href="#linearGradient881"
       id="linearGradient883-2"
       x1="-1042.2394"
       y1="575.5918"
       x2="-661.94928"
       y2="920.75275"
       gradientUnits="userSpaceOnUse"
       gradientTransform="matrix(0.26458333,0,0,0.26458333,-525.62632,-271.05187)" />
    <linearGradient
       inkscape:collect="always"
       xlink:href="#linearGradient881"
       id="linearGradient883-5-2"
       x1="-1042.2394"
       y1="575.5918"
       x2="-661.94928"
       y2="920.75275"
       gradientUnits="userSpaceOnUse"
       gradientTransform="matrix(-0.21200485,-0.15829809,-0.15829809,0.21200485,-742.12272,-342.55747)" />
    <linearGradient
       inkscape:collect="always"
       xlink:href="#linearGradient881"
       id="linearGradient949"
       gradientUnits="userSpaceOnUse"
       gradientTransform="matrix(0.2523275,0.07959378,-0.07959378,0.2523275,-524.10252,-80.028037)"
       x1="-1042.2394"
       y1="575.5918"
       x2="-661.94928"
       y2="920.75275" />
    <linearGradient
       inkscape:collect="always"
       xlink:href="#linearGradient881"
       id="linearGradient883-2-9"
       x1="-994.08356"
       y1="602.16052"
       x2="-809.73792"
       y2="824.44104"
       gradientUnits="userSpaceOnUse"
       gradientTransform="matrix(0.44026804,-0.03652603,0.03592056,0.44768915,439.99323,-199.34366)" />
    <linearGradient
       inkscape:collect="always"
       xlink:href="#linearGradient881"
       id="linearGradient883-2-9-6"
       x1="-1042.2394"
       y1="575.5918"
       x2="-661.94928"
       y2="920.75275"
       gradientUnits="userSpaceOnUse"
       gradientTransform="translate(1110.5899,177.77043)" />
    <linearGradient
       inkscape:collect="always"
       xlink:href="#linearGradient881"
       id="linearGradient1006"
       gradientUnits="userSpaceOnUse"
       gradientTransform="translate(1110.5899,177.77043)"
       x1="-1042.2394"
       y1="575.5918"
       x2="-661.94928"
       y2="920.75275" />
    <linearGradient
       inkscape:collect="always"
       xlink:href="#linearGradient881"
       id="linearGradient1009"
       gradientUnits="userSpaceOnUse"
       gradientTransform="matrix(-0.44173096,0,0,-0.44048921,-158.33301,474.82542)"
       x1="-799.50232"
       y1="793.31262"
       x2="-964.1687"
       y2="574.52875" />
  </defs>
  <g
     inkscape:label="Layer 1"
     inkscape:groupmode="layer"
     id="layer1"
     transform="translate(0,3)"
     style="display:inline">
    <path
       id="rect31-3"
       style="fill:#9ff0f3;fill-opacity:1;fill-rule:evenodd;stroke-width:0.42302504"
       d="m 51.000709,247.3746 c 0,0 27.787019,-19.79135 94.410031,-21.81255 55.2788,-1.67699 100.89071,21.81255 100.89071,21.81255 V 46.985297 c 0,0 -28.98309,-21.529466 -96.67691,-21.81255 -74.715726,-0.312436 -98.623831,21.81255 -98.623831,21.81255 z"
       sodipodi:nodetypes="csccscc"
       inkscape:connector-curvature="0" />
    <path
       id="rect31"
       style="fill:#11d8e7;fill-opacity:1;fill-rule:evenodd;stroke-width:0.42302504"
       d="m 51.000709,46.985297 c 0,0 27.787019,19.791373 94.410031,21.812549 55.2788,1.677018 100.89071,-21.812549 100.89071,-21.812549 V 247.3746 c 0,0 -28.98309,21.52949 -96.67691,21.81257 C 74.908814,269.49961 51.000709,247.3746 51.000709,247.3746 Z"
       sodipodi:nodetypes="csccscc"
       inkscape:connector-curvature="0" />
  </g>
  <g
     inkscape:groupmode="layer"
     id="layer2"
     inkscape:label="Layer 2"
     transform="translate(0,3)"
     style="display:inline">
    <path
       id="rect31-6"
       style="fill:#4faa1a;fill-opacity:1;fill-rule:evenodd;stroke-width:0.42302504"
       d="m 51.000706,148.25782 c 0,0 50.143054,-31.72216 114.337954,1.7514 72.42952,37.76746 80.96279,-1.7514 80.96279,-1.7514 v 99.11678 c 0,0 -28.98309,21.52949 -96.67691,21.81257 C 74.908798,269.49961 51.000706,247.3746 51.000706,247.3746 Z"
       sodipodi:nodetypes="csccscc"
       inkscape:connector-curvature="0" />
  </g>
  <g
     inkscape:groupmode="layer"
     id="layer3"
     inkscape:label="Layer 3"
     transform="translate(0,3)"
     style="display:inline" />
  <g
     inkscape:groupmode="layer"
     id="layer4"
     inkscape:label="Layer 4"
     transform="translate(0,3)">
    <path
       style="opacity:1;fill:url(#linearGradient949);fill-opacity:1;stroke:none;stroke-width:0.74108517;stroke-linecap:round;stroke-linejoin:round;stroke-miterlimit:4;stroke-dasharray:none;stroke-dashoffset:0;stroke-opacity:1;paint-order:markers fill stroke"
       d="m -800.60986,-12.208122 c -3.20063,-1.02103 -10.19576,-2.93823 -14.94617,-1.94133 -7.19424,1.50975 -21.75122,4.7131105 -26.50227,25.67519 -4.42944,19.54315 32.30181,67.13873 50.3295,81.48423 18.02769,14.345492 77.32005,35.037672 95.22247,24.277352 18.42218,-11.0727 16.90862,-25.901092 16.09102,-33.206442 -0.53986,-4.82375 -4.54991,-10.86764 -6.52133,-13.58795 -0.65718,-0.90673 -1.08768,-1.44416 -1.08768,-1.44416 0,0 4.55792,8.83148 3.4656,17.96196 -1.07703,9.0028 -7.72502,18.277652 -18.82616,22.292632 -24.13711,6.65661 -41.19182,-26.940522 -59.09547,-43.354872 -15.48613,-18.21504 -68.37083,-20.50842 -69.84257,-50.3884 0.33906,-11.8000095 7.06725,-21.0167695 15.28072,-24.8572395 8.32996,-3.8949105 18.14444,-2.3297205 18.14444,-2.3297205 0,0 -0.64524,-0.24084 -1.7121,-0.58125 z m 26.50902,74.24235 c 3.20689,1.07134 6.14594,3.15105 8.30076,6.14483 3.93085,5.46128 4.14461,12.43004 1.10303,17.75424 -3.85725,5.77081 -11.38008,8.52311 -18.56643,6.25626 -4.53478,-1.43044 -8.03167,-4.57609 -9.9588,-8.44515 -2.98188,-6.59357 -1.40364,-14.39352 4.09229,-18.97539 2.59834,-2.09212 5.85047,-3.35521 9.29454,-3.55914 1.93445,-0.0733 3.87924,0.2045 5.73461,0.82435 z"
       id="path870"
       inkscape:connector-curvature="0"
       sodipodi:nodetypes="csszscccccccsccsccscccs" />
    <path
       style="opacity:1;fill:url(#linearGradient883-2);fill-opacity:1;stroke:none;stroke-width:0.74108529;stroke-linecap:round;stroke-linejoin:round;stroke-miterlimit:4;stroke-dasharray:none;stroke-dashoffset:0;stroke-opacity:1;paint-order:markers fill stroke"
       d="m -768.92366,-123.19268 c -3.35953,-0.0109 -10.60739,0.26503 -14.83785,2.6448 -6.40682,3.60404 -19.32586,11.03815 -17.55087,32.458481 1.77498,21.42032 56.40615,62.494927 77.17103,63.267447 16.14449,-0.24236 22.66881,-7.74168 23.30609,-17.419607 2.71946,-41.29875 -76.73076,-9.1662 -89.97906,-44.92904 -3.22641,-11.35542 0.41748,-22.169261 7.09518,-28.302661 6.77241,-6.22038 16.60312,-7.68014 16.60312,-7.68014 0,0 -0.6878,-0.0356 -1.80764,-0.0393 z m 47.94853,62.655601 c 9.07969,-1e-5 16.44027,7.09357 16.44035,15.84399 -8e-5,8.75042 -7.36066,15.843997 -16.44035,15.843997 -9.07969,0 -16.44026,-7.093577 -16.44035,-15.843997 9e-5,-8.75042 7.36066,-15.844 16.44035,-15.84399 z"
       id="path870-7"
       inkscape:connector-curvature="0"
       sodipodi:nodetypes="sszcscscsscscs" />
    <path
       style="opacity:1;fill:url(#linearGradient883-5-2);fill-opacity:1;stroke:none;stroke-width:0.74108529;stroke-linecap:round;stroke-linejoin:round;stroke-miterlimit:4;stroke-dasharray:none;stroke-dashoffset:0;stroke-opacity:1;paint-order:markers fill stroke"
       d="m -635.63686,-78.518299 c 2.69844,2.00124 8.34091,6.55867 10.30688,10.99658 2.97738,6.721 8.88135,20.40715 -5.35652,36.508827 -14.23786,16.10168 -82.58722,16.32848 -99.68786,4.52402 -12.79124,-9.853317 -13.53225,-19.765807 -8.25265,-27.901797 22.52967,-34.71882 66.96674,38.562717 98.97893,17.83309 9.37911,-7.16852 12.92918,-18.01352 11.24804,-26.9233 -1.70497,-9.03614 -8.70874,-16.08745 -8.70874,-16.08745 0,0 0.57242,0.38298 1.47193,1.05001 z m -75.90645,21.51735 c -7.27535,-5.43231 -17.41725,-4.15216 -22.65263,2.85932 -5.23524,7.01156 -3.5814,17.09927 3.69396,22.531577 7.27536,5.4323 17.41725,4.15214 22.65263,-2.85932 5.23524,-7.011577 3.5814,-17.099277 -3.69396,-22.531577 z"
       id="path870-6-0"
       inkscape:connector-curvature="0"
       sodipodi:nodetypes="sszcscscsscscs"
       inkscape:transform-center-x="-39.95225"
       inkscape:transform-center-y="-4.3183235" />
    <path
       style="opacity:1;fill:url(#linearGradient883-2-9);fill-opacity:1;stroke:none;stroke-width:1.24765134;stroke-linecap:round;stroke-linejoin:round;stroke-miterlimit:4;stroke-dasharray:none;stroke-dashoffset:0;stroke-opacity:1;paint-order:markers fill stroke"
       d="m 49.034716,84.429505 c -5.608884,4.7e-5 -17.614771,1.912796 -24.33119,6.523517 C 14.531839,97.935717 -4.8564332,111.65185 6.0896716,148.29745 17.03578,184.94303 108.43429,246.25525 143.09204,244.69578 c 26.8316,-2.63885 36.66998,-16.22877 36.41651,-32.69234 C 178.42693,141.74834 50.583728,207.08652 23.68324,148.40283 11.053712,125.18639 13.175992,97.001763 52.568563,84.429465 Z M 143.51186,183.8268 c 15.10865,-1.25351 28.31975,9.73307 29.50785,24.53926 1.18784,14.8062 -10.09716,27.82504 -25.2058,29.07849 -15.10866,1.25346 -28.31972,-9.73309 -29.50785,-24.53927 -1.18784,-14.8062 10.09716,-27.82508 25.2058,-29.07848 z"
       id="path870-7-0"
       inkscape:connector-curvature="0"
       sodipodi:nodetypes="sszcsccscscsc" />
    <path
       style="opacity:1;fill:url(#linearGradient1009);fill-opacity:1;stroke:none;stroke-width:1.23552704;stroke-linecap:round;stroke-linejoin:round;stroke-miterlimit:4;stroke-dasharray:none;stroke-dashoffset:0;stroke-opacity:1;paint-order:markers fill stroke"
       d="M 296.06597,171.6853 C 291.20257,141.69097 233.2796,86.071418 192.15359,69.715226 c -16.9642,-0.946693 -30.27783,-1.177147 -46.10056,0.805655 0,0 -4.01247,0.138846 -3.7797,4.736615 0.73484,17.976473 0.23148,29.769354 0.55139,43.783284 0.58732,4.3396 3.13777,5.76963 6.15931,6.08244 16.91426,2.55711 26.11952,1.97136 45.24103,4.81935 44.20043,5.74437 122.74216,36.96188 76.50272,78.92078 -11.30679,10.35594 -23.81102,17.66616 -23.81102,17.66616 47.81968,-9.35654 54.82216,-35.30627 49.14921,-54.84421 z M 186.40504,119.51022 h -31.72095 c -2.77475,0 -5.00828,-2.22811 -5.00828,-4.99509 V 82.88341 c 0,-2.76699 2.23353,-4.994224 5.00828,-4.994224 h 31.72095 c 2.77477,0 5.00917,2.227234 5.00917,4.994224 v 31.63172 c 0,2.76698 -2.2344,4.99509 -5.00917,4.99509 z"
       id="path870-7-0-1"
       inkscape:connector-curvature="0"
       sodipodi:nodetypes="ccccccccccsssssssss" />
  </g>
</svg>
